<svg xmlns="http://www.w3.org/2000/svg" viewBox="0 0 363.5 421.6"><defs><style>.cls-1{fill:#ffd600;}.cls-2{fill:#ffab00;}</style></defs><title>asegurador</title><g id="Capa_2" data-name="Capa 2"><g id="Capa_1-2" data-name="Capa 1"><path class="cls-1" d="M289.5,50.9c-53.3,0-85.7-30.1-99.6-47a10.38,10.38,0,0,0-16.1,0c-13.9,16.9-46.3,47-99.6,47H14.7A14.55,14.55,0,0,0,.1,65.5V160c0,167.1,134.6,247.1,181.7,261.6C228.9,407,363.5,327.1,363.5,160V65.4a14.55,14.55,0,0,0-14.6-14.6l-59.4.1Z"/><path class="cls-2" d="M181.8,37.6c21.4,20,56.7,42.3,107.7,42.3h44.9v79.9c0,64.8-22,121.4-65.4,168.3-31.7,34.2-67.1,54.2-87.2,62.4-20.1-8.2-55.5-28.2-87.2-62.4C51.2,281.2,29.2,224.5,29.2,159.8V79.9H74.1c51.1,0,86.3-22.3,107.7-42.3m0-37.6a10.4,10.4,0,0,0-8.1,3.8c-13.9,16.9-46.3,47-99.6,47H14.6A14.55,14.55,0,0,0,0,65.4v94.5C0,327,134.6,407,181.7,421.5c47.1-14.6,181.7-94.5,181.7-261.6V65.4a14.55,14.55,0,0,0-14.6-14.6H289.3c-53.3,0-85.7-30.1-99.6-47A9.9,9.9,0,0,0,181.8,0Z"/><path class="cls-2" d="M245.6,233.3c0-21.2-12.5-34.2-37.5-39.7l-8.8-1.8V155.4c6.7,1.4,12,5.4,14.6,10.7a13.2,13.2,0,0,0,11.8,7.4c10.2,0,16.9-11.3,11.4-19.9-7.1-11.3-20.5-18.8-37.9-20.8v-6.3a9,9,0,0,0-18,0v6.3c-27.7,3-44,18.2-44,41.4,0,20.3,12.6,33.9,36.2,39.4l7.8,1.8v38.3c-7.9-1.5-13.9-5.5-16.9-11.3a13.4,13.4,0,0,0-11.8-7.3h-1.3c-10.3,0-16.8,11.3-11.4,19.9,7.4,11.9,21.8,19.3,41.4,21v4.2a9,9,0,0,0,18,0v-4.3C229,272.9,245.6,257.7,245.6,233.3Zm-80-61.5c0-8.5,6.4-14.9,15.7-16.4v32.8C171.1,185.4,165.6,179.8,165.6,171.8Zm33.7,82.3V218.9c12.7,2.8,18.7,8.5,18.7,17.6C218,246.3,211.1,252.8,199.3,254.1Z"/><path class="cls-2" d="M245.6,233.3c0-21.2-12.5-34.2-37.5-39.7l-8.8-1.8V155.4c6.7,1.4,12,5.4,14.6,10.7a13.2,13.2,0,0,0,11.8,7.4c10.2,0,16.9-11.3,11.4-19.9-7.1-11.3-20.5-18.8-37.9-20.8v-6.3a9,9,0,0,0-18,0v6.3c-27.7,3-44,18.2-44,41.4,0,20.3,12.6,33.9,36.2,39.4l7.8,1.8v38.3c-7.9-1.5-13.9-5.5-16.9-11.3a13.4,13.4,0,0,0-11.8-7.3h-1.3c-10.3,0-16.8,11.3-11.4,19.9,7.4,11.9,21.8,19.3,41.4,21v4.2a9,9,0,0,0,18,0v-4.3C229,272.9,245.6,257.7,245.6,233.3Zm-80-61.5c0-8.5,6.4-14.9,15.7-16.4v32.8C171.1,185.4,165.6,179.8,165.6,171.8Zm33.7,82.3V218.9c12.7,2.8,18.7,8.5,18.7,17.6C218,246.3,211.1,252.8,199.3,254.1Z"/></g></g></svg>