<svg xmlns="http://www.w3.org/2000/svg" viewBox="0 0 310 432.1"><defs><style>.cls-1{fill:#65798c;}.cls-2{fill:#ffab00;}.cls-3{fill:#64c1ff;}</style></defs><title>bancario</title><g id="Capa_2" data-name="Capa 2"><g id="Capa_1-2" data-name="Capa 1"><path class="cls-1" d="M78.7,76.2v93.7h39.9V76.2a36.3,36.3,0,1,1,72.6,0v93.7h39.9V76.2a76.2,76.2,0,1,0-152.4,0Z"/><path class="cls-2" d="M281.7,432.1H28.3A28.34,28.34,0,0,1,0,403.8V180.6a28.34,28.34,0,0,1,28.3-28.3H281.7A28.34,28.34,0,0,1,310,180.6V403.8A28.34,28.34,0,0,1,281.7,432.1Z"/><path class="cls-3" d="M310,229.5H0V180.7a28.34,28.34,0,0,1,28.3-28.3H281.7A28.34,28.34,0,0,1,310,180.7v48.8Z"/><path class="cls-1" d="M181.9,303.7a26.93,26.93,0,0,0-30-26.8,26.54,26.54,0,0,0-23.7,23.9A26.83,26.83,0,0,0,138.5,325a8.81,8.81,0,0,1,3.4,7v15.6a13.2,13.2,0,0,0,26.4,0V332a9,9,0,0,1,3.5-7.1A27.21,27.21,0,0,0,181.9,303.7Z"/><path class="cls-2" d="M109.5,191a15.9,15.9,0,1,1-15.9-15.9A15.88,15.88,0,0,1,109.5,191Z"/><path class="cls-2" d="M170.8,191a15.9,15.9,0,1,1-15.9-15.9A15.88,15.88,0,0,1,170.8,191Z"/><path class="cls-2" d="M232.1,191a15.9,15.9,0,1,1-15.9-15.9A15.88,15.88,0,0,1,232.1,191Z"/></g></g></svg>