<svg xmlns="http://www.w3.org/2000/svg" viewBox="0 0 291.42 326.87"><defs><style>.cls-1{fill:#3b536d;}.cls-2{fill:#9bcfc2;}.cls-3{fill:#60a1e7;}.cls-4{fill:#fff;}</style></defs><title>favicon</title><g id="Capa_2" data-name="Capa 2"><g id="Capa_2-2" data-name="Capa 2"><path class="cls-1" d="M195,163.28c6.2,11.75,19,21.16,34.28,25.19a64,64,0,0,0,16.44,2.14,66.9,66.9,0,0,0,33.12-9,30.89,30.89,0,0,1,1.2,22.58c-3.5,10.78-14.19,22.55-29.4,22.91-14.41.32-17.74-2.88-27.66-12.42-1-1-2-2-3.18-3-13.91-13.19-38.08-14.68-53.88-3.33a5.17,5.17,0,1,0,6,8.4c10.48-7.53,29.34-8.35,40.73,2.44,1.1,1,2.13,2,3.12,3C226,232,231.71,237.5,248.85,237.5l2,0c1,0,1.9-.11,2.84-.2,8,14.22,7.05,33.45-2.46,44.42-8.82,10.18-18.29,15.79-28.84,17.08a46.8,46.8,0,0,0-.91-19.55c-4.06-15.62-15.49-29-27.17-31.72a5.17,5.17,0,1,0-2.38,10.07c6.78,1.6,16.18,11.33,19.53,24.25,2,7.65,3.22,22.4-10.84,35.24A37.1,37.1,0,0,1,161,323.93c-10.4-4.33-17.66-12.46-20.4-22.49V234.73c14.85,6.31,18.35,17,22.67,30,4,12.07,8.51,25.75,23.47,36a5.08,5.08,0,0,0,2.92.91,5.17,5.17,0,0,0,2.92-9.43c-12.07-8.28-15.67-19.17-19.48-30.7-4.67-14.09-9.91-30-32.5-37.83V142.05c8.17,1.26,17.29-1.84,26.85-5.11C189.7,129.3,215,120.65,243,156.25a5.17,5.17,0,1,0,8.13-6.4c-32.57-41.35-64-30.59-87-22.72-9.53,3.27-17.79,6.1-23.5,4.32v-107a2,2,0,0,0,.08-.22C146.92,4.09,163.41-2.14,177,.62c11,2.24,23,11.29,22.76,29.49-9.62,2.38-18.81,7.6-27.46,15.64a5.17,5.17,0,1,0,7,7.58C191,42.42,203.19,37.8,216.47,39.22c14.69,1.56,27.3,9.44,34.61,21.64a45.49,45.49,0,0,1,3.8,38.79c-1.39,0-2.75.12-4.09.19-7.58.41-13.57.73-21.07-4.42-6-4.12-12.29-12.27-12.81-21.18a5.17,5.17,0,0,0-10.33.6c.64,10.91,7.42,22.34,17.29,29.12,10.4,7.13,19.47,6.64,27.48,6.21,9.6-.52,17.9-1,30.22,10.2a29.89,29.89,0,0,1,9.73,25.23c-.87,10.38-6.52,20.1-14.75,25.36-13.77,8.8-29.63,11.48-44.66,7.51-12.32-3.26-23-10.93-27.77-20a5.17,5.17,0,0,0-9.15,4.83Z"/><path class="cls-2" d="M140.58,77.08V91.57H46.4a14.26,14.26,0,1,1,0-14.49Z"/><path class="cls-1" d="M140.57,269.47H121.5c.16,2.18.25,4.48.25,6.87,0,2.67-.11,5.22-.31,7.62h19.13Z"/><path class="cls-1" d="M121.69,269.47a23.57,23.57,0,1,0,1,6.87A23.81,23.81,0,0,0,121.69,269.47ZM109.62,280a11.29,11.29,0,1,1,.6-3.62A11.13,11.13,0,0,1,109.62,280Z"/><path class="cls-3" d="M109.19,36.13a11.4,11.4,0,0,0-.15-1.76v3.52A11.29,11.29,0,0,0,109.19,36.13Z"/><path class="cls-3" d="M140.57,30.65H120.32a39.22,39.22,0,0,1-.65,14.49h20.9Z"/><path class="cls-3" d="M109,37.89a11.55,11.55,0,1,1,0-3.52V30.65h11.75a23.79,23.79,0,1,0-1.12,14.49H109Z"/><path class="cls-3" d="M120.79,30.65H109v3.72a10.4,10.4,0,0,1,0,3.52v7.25h10.63a23.69,23.69,0,0,0,1.78-9A24.11,24.11,0,0,0,120.79,30.65Z"/><path class="cls-3" d="M140.58,183v14.49H32.81a17.22,17.22,0,1,1,0-14.49Z"/><rect class="cls-4" x="140.57" y="131.45" width="0.01" height="10.6"/><rect class="cls-4" x="140.57" y="223.66" width="0.01" height="11.07"/><rect class="cls-2" x="140.57" y="223.66" width="0.01" height="11.07"/><path class="cls-2" d="M140.58,223.66v-2H66.21a14.7,14.7,0,1,0,0,14.49h74.37v-1.39h0V223.66ZM53.43,235.6a6.73,6.73,0,1,1,6.73-6.73A6.72,6.72,0,0,1,53.43,235.6Z"/><path class="cls-1" d="M85.21,130a23.79,23.79,0,1,0,0,14.49h55.33V130ZM63.1,148.75a11.56,11.56,0,1,1,11.55-11.56A11.57,11.57,0,0,1,63.1,148.75Z"/></g></g></svg>