<svg xmlns="http://www.w3.org/2000/svg" viewBox="0 0 414.39 419.6"><defs><style>.cls-1{fill:#6cbb8e;}.cls-2{fill:#64c1ff;}.cls-3{fill:#fff;}.cls-4{fill:#ffc477;}.cls-5{fill:#5aa076;}</style></defs><title>inmobiliario</title><g id="Capa_2" data-name="Capa 2"><g id="Capa_1-2" data-name="Capa 1"><path class="cls-1" d="M334.6,108.6l.4,152.8-6.2,2.4-273.2.6-.4-155.2Z"/><path class="cls-2" d="M122.3,383.9,71.6,419.6l-4.5-6.3L4.6,324.4,0,318.1l50.8-35.7,4.5,6.3,58.1,82.5Z"/><path class="cls-3" d="M226.2,170.9l.2,68.9-22-3.4a149.58,149.58,0,0,0-40.1-.9l-.1-64.3Z"/><path class="cls-3" d="M306.6,178.7V233H260V178.7a23.3,23.3,0,0,1,46.6,0Z"/><path class="cls-4" d="M412.8,256.2a23.47,23.47,0,0,0-30.1-13.3L302.1,274H302a18.93,18.93,0,0,0-.4-7.1,12.51,12.51,0,0,0-.8-3.2,18,18,0,0,0-3.1-6,24,24,0,0,0-15.2-9.3l-56.2-8.8-22-3.4a149.58,149.58,0,0,0-40.1-.9,145.63,145.63,0,0,0-32.1,6.8l-1.2.4a152.48,152.48,0,0,0-41,21.8c-1,.6-1.9,1.4-2.9,2L55.3,288.6l58.1,82.5,6.4-4.5A82.44,82.44,0,0,1,180,350.2l13.9,2.1a93,93,0,0,0,47.9-5.1l157.7-60.9a23.26,23.26,0,0,0,13.4-29.9.35.35,0,0,1-.1-.2Z"/><path class="cls-3" d="M133.1,178.9l.1,54.3-46.6.1L86.5,179a23.3,23.3,0,1,1,46.6-.1Z"/><path class="cls-5" d="M334.6,108.6l-279.4.6-23.3.1L70.5.6,318.8,0l39,108.5Z"/></g></g></svg>