<svg xmlns="http://www.w3.org/2000/svg" viewBox="0 0 1171.5 306.38"><defs><style>.cls-1{fill:#3b536d;}.cls-2{fill:#9bcfc2;}.cls-3{fill:#60a1e7;}.cls-4{fill:#fff;}</style></defs><title>logo_brainbow</title><g id="Capa_2" data-name="Capa 2"><g id="Capa_2-2" data-name="Capa 2"><path class="cls-1" d="M182.75,153c5.82,11,17.83,19.84,32.14,23.62a60.41,60.41,0,0,0,15.41,2,62.8,62.8,0,0,0,31-8.4,28.9,28.9,0,0,1,1.12,21.16c-3.27,10.11-13.29,21.13-27.55,21.47-13.51.3-16.63-2.7-25.93-11.64-.94-.9-1.92-1.85-3-2.84-13-12.36-35.69-13.76-50.5-3.13a4.85,4.85,0,1,0,5.66,7.88c9.82-7.06,27.5-7.83,38.17,2.29l2.93,2.8c9.53,9.16,14.93,14.36,31,14.36l1.87,0c.91,0,1.79-.1,2.66-.18,7.52,13.32,6.61,31.35-2.3,41.63-8.27,9.55-17.15,14.8-27,16a43.82,43.82,0,0,0-.85-18.32c-3.8-14.65-14.51-27.15-25.47-29.74a4.85,4.85,0,0,0-2.22,9.44c6.35,1.5,15.16,10.62,18.3,22.73,1.86,7.18,3,21-10.16,33a34.77,34.77,0,0,1-37.15,6.43c-9.75-4.05-16.56-11.67-19.13-21.08V220c13.92,5.91,17.2,15.88,21.26,28.13,3.74,11.31,8,24.13,22,33.71a4.74,4.74,0,0,0,2.73.86,4.85,4.85,0,0,0,2.74-8.85c-11.31-7.76-14.69-18-18.26-28.77-4.38-13.21-9.29-28.13-30.47-35.46v-76.5c7.67,1.19,16.21-1.72,25.17-4.79,20.88-7.16,44.55-15.27,70.81,18.1a4.88,4.88,0,0,0,3.83,1.86,4.86,4.86,0,0,0,3.8-7.85c-30.54-38.76-60-28.68-81.58-21.3-8.93,3.06-16.67,5.72-22,4V23a2,2,0,0,0,.08-.22C137.71,3.84,153.17-2,165.87.58c10.3,2.1,21.6,10.59,21.33,27.64-9,2.23-17.62,7.13-25.73,14.66a4.85,4.85,0,0,0,6.6,7.1c11-10.22,22.39-14.55,34.84-13.22a42.37,42.37,0,0,1,36,56.64c-1.3,0-2.58.11-3.83.18-7.11.38-12.72.69-19.75-4.14-5.63-3.86-11.52-11.5-12-19.85a4.85,4.85,0,0,0-9.68.56c.59,10.23,7,20.94,16.2,27.29,9.75,6.69,18.25,6.23,25.76,5.83,9-.49,16.78-.91,28.33,9.55a28,28,0,0,1,9.12,23.66c-.82,9.72-6.12,18.83-13.83,23.76-12.91,8.25-27.77,10.76-41.86,7-11.55-3.05-21.53-10.24-26-18.77a4.85,4.85,0,0,0-8.58,4.53Z"/><path class="cls-2" d="M131.77,72.25V85.83H43.5a13.36,13.36,0,1,1,0-13.58Z"/><path class="cls-1" d="M114.07,252.58a22.34,22.34,0,1,0-.24,13.58h17.93V252.58Zm-11.31,9.83a10.61,10.61,0,1,1,.56-3.39A10.61,10.61,0,0,1,102.76,262.41Z"/><path class="cls-3" d="M102.35,33.87a11.24,11.24,0,0,1-.13,1.65v-3.3A11.24,11.24,0,0,1,102.35,33.87Z"/><path class="cls-3" d="M113.22,28.73a22.28,22.28,0,1,0-1,13.58h19.58V28.73Zm-21.69,16a10.83,10.83,0,1,1,10.69-12.48,10.54,10.54,0,0,1,0,3.3A10.84,10.84,0,0,1,91.53,44.7Z"/><path class="cls-3" d="M131.77,171.55v13.58h-101a16.14,16.14,0,1,1,0-13.58Z"/><path class="cls-2" d="M603.88,157.56V213.3H592.26v-14c-5.47,9.23-16.08,14.88-31,14.88-20.35,0-32.83-10.6-32.83-26.16,0-13.85,8.89-25.48,34.71-25.48h28.55v-5.47c0-15.39-8.72-23.77-25.47-23.77-11.63,0-22.57,4.11-29.92,10.6l-5.48-9.06c9.07-7.69,22.4-12.14,36.59-12.14C590.72,122.68,603.88,134.31,603.88,157.56Zm-12.14,28.73V171.58H563.53c-17.44,0-23.08,6.84-23.08,16.07,0,10.43,8.38,16.93,22.74,16.93C576.87,204.58,587,198.08,591.74,186.29Z"/><path class="cls-2" d="M634.14,95A8.77,8.77,0,0,1,643,86.43a8.63,8.63,0,0,1,8.89,8.38,8.89,8.89,0,0,1-17.78.17Zm2.74,28.39H649V213.3H636.88Z"/><path class="cls-1" d="M438.56,180.64c0,20.69-16.41,32.66-47.87,32.66h-61.9V93.61h58.48c29.92,0,45.31,12.49,45.31,31.12a28.76,28.76,0,0,1-15.91,26.33C430,155.34,438.56,165.6,438.56,180.64Zm-82.24-66.16v28.21h27.53c13.5,0,20.86-4.79,20.86-14.2s-7.36-14-20.86-14Zm54.37,63.26c0-10.09-7.69-14.88-22.06-14.88H356.32v29.58h32.31C403,192.44,410.69,188,410.69,177.74Z"/><path class="cls-1" d="M514.81,120v24.62c-2.23-.17-3.93-.35-6-.35-14.7,0-24.45,8-24.45,25.65V213.3H457.7v-92h25.48v12.14C489.67,124.56,500.62,120,514.81,120Z"/><path class="cls-1" d="M772.29,160.64V213.3H745.61V164.74c0-14.87-6.84-21.71-18.63-21.71-12.83,0-22.06,7.86-22.06,24.79V213.3H678.25v-92h25.47v10.77c7.19-7.86,18-12.13,30.44-12.13C755.87,120,772.29,132.6,772.29,160.64Z"/><path class="cls-1" d="M896.58,167.31c0,28.89-20,47.36-45.82,47.36-12.31,0-22.23-3.93-28.9-12v10.6H796.39V86.43h26.67v44.63c6.84-7.52,16.24-11.11,27.7-11.11C876.58,120,896.58,138.41,896.58,167.31Zm-27,0c0-15.9-10.09-25.48-23.43-25.48s-23.42,9.58-23.42,25.48,10.09,25.47,23.42,25.47S869.57,183.21,869.57,167.31Z"/><path class="cls-1" d="M907.51,167.31c0-27.7,21.38-47.36,50.61-47.36s50.44,19.66,50.44,47.36-21.2,47.36-50.44,47.36S907.51,195,907.51,167.31Zm74,0c0-15.9-10.09-25.48-23.43-25.48s-23.59,9.58-23.59,25.48,10.26,25.47,23.59,25.47S981.55,183.21,981.55,167.31Z"/><path class="cls-1" d="M1171.5,121.31l-33.34,92h-25.65l-20.69-57.11-21.37,57.11H1044.8l-33.17-92h25.14l21.71,62.24,22.57-62.24h22.57l21.89,62.24,22.39-62.24Z"/><rect class="cls-4" x="131.76" y="123.21" width="0.01" height="9.93"/><rect class="cls-4" x="131.76" y="209.64" width="0.01" height="10.38"/><path class="cls-2" d="M62.06,207.74a13.76,13.76,0,1,0,0,13.58h69.7V207.74Zm-12,13.09a6.31,6.31,0,1,1,6.3-6.3A6.3,6.3,0,0,1,50.09,220.83Z"/><path class="cls-1" d="M79.87,121.8a22.28,22.28,0,1,0,0,13.58h51.85V121.8ZM59.15,139.42A10.83,10.83,0,1,1,70,128.59,10.83,10.83,0,0,1,59.15,139.42Z"/></g></g></svg>