<svg xmlns="http://www.w3.org/2000/svg" xmlns:xlink="http://www.w3.org/1999/xlink" viewBox="0 0 426.37 190.36"><defs><style>.cls-1{fill:url(#Degradado_sin_nombre_17);}.cls-2{fill:#c3cbdb;}.cls-3{fill:none;}.cls-4{fill:#dfe6ef;}.cls-5{fill:#acb8cc;}.cls-11,.cls-13,.cls-15,.cls-17,.cls-19,.cls-21,.cls-6,.cls-9{opacity:0.31;isolation:isolate;}.cls-6{fill:url(#Degradado_sin_nombre_18);}.cls-7{fill:#8e9ab2;}.cls-8{fill:url(#Degradado_sin_nombre_17-2);}.cls-9{fill:url(#Degradado_sin_nombre_18-2);}.cls-10{fill:url(#Degradado_sin_nombre_17-3);}.cls-11{fill:url(#Degradado_sin_nombre_18-3);}.cls-12{fill:url(#Degradado_sin_nombre_17-4);}.cls-13{fill:url(#Degradado_sin_nombre_18-4);}.cls-14{fill:url(#Degradado_sin_nombre_17-5);}.cls-15{fill:url(#Degradado_sin_nombre_18-5);}.cls-16{fill:url(#Degradado_sin_nombre_17-6);}.cls-17{fill:url(#Degradado_sin_nombre_18-6);}.cls-18{fill:url(#Degradado_sin_nombre_17-7);}.cls-19{fill:url(#Degradado_sin_nombre_18-7);}.cls-20{fill:url(#Degradado_sin_nombre_17-8);}.cls-21{fill:url(#Degradado_sin_nombre_18-8);}</style><linearGradient id="Degradado_sin_nombre_17" x1="-5457.3" y1="1046.46" x2="-5456.3" y2="1046.46" gradientTransform="matrix(95.69, 0, 0, -49.69, 522237.97, 52069.31)" gradientUnits="userSpaceOnUse"><stop offset="0" stop-color="#9aa5c3"/><stop offset="0.71" stop-color="#f2f5fa"/><stop offset="1" stop-color="#f2f5fa" stop-opacity="0"/></linearGradient><linearGradient id="Degradado_sin_nombre_18" x1="-5372.16" y1="1047.37" x2="-5372.81" y2="1046.6" gradientTransform="matrix(37.62, 0, 0, -33.84, 202155.27, 35503.04)" gradientUnits="userSpaceOnUse"><stop offset="0" stop-color="#9aa5c3"/><stop offset="1" stop-color="#f2f5fa"/></linearGradient><linearGradient id="Degradado_sin_nombre_17-2" x1="-5457.3" y1="1046.46" x2="-5456.3" y2="1046.46" gradientTransform="matrix(95.69, 0, 0, -49.69, 522237.97, 52164.31)" xlink:href="#Degradado_sin_nombre_17"/><linearGradient id="Degradado_sin_nombre_18-2" x1="-5372.16" y1="1047.37" x2="-5372.81" y2="1046.6" gradientTransform="matrix(37.62, 0, 0, -33.84, 202155.27, 35598.04)" xlink:href="#Degradado_sin_nombre_18"/><linearGradient id="Degradado_sin_nombre_17-3" x1="-5457.3" y1="1046.46" x2="-5456.3" y2="1046.46" gradientTransform="matrix(95.69, 0, 0, -49.69, 522345.97, 52069.31)" xlink:href="#Degradado_sin_nombre_17"/><linearGradient id="Degradado_sin_nombre_18-3" x1="-5372.16" y1="1047.37" x2="-5372.81" y2="1046.6" gradientTransform="matrix(37.62, 0, 0, -33.84, 202263.27, 35503.04)" xlink:href="#Degradado_sin_nombre_18"/><linearGradient id="Degradado_sin_nombre_17-4" x1="-5457.3" y1="1046.46" x2="-5456.3" y2="1046.46" gradientTransform="matrix(95.69, 0, 0, -49.69, 522345.97, 52164.31)" xlink:href="#Degradado_sin_nombre_17"/><linearGradient id="Degradado_sin_nombre_18-4" x1="-5372.16" y1="1047.37" x2="-5372.81" y2="1046.6" gradientTransform="matrix(37.62, 0, 0, -33.84, 202263.27, 35598.04)" xlink:href="#Degradado_sin_nombre_18"/><linearGradient id="Degradado_sin_nombre_17-5" x1="-5457.3" y1="1046.46" x2="-5456.3" y2="1046.46" gradientTransform="matrix(95.69, 0, 0, -49.69, 522453.97, 52069.31)" xlink:href="#Degradado_sin_nombre_17"/><linearGradient id="Degradado_sin_nombre_18-5" x1="-5372.16" y1="1047.37" x2="-5372.81" y2="1046.6" gradientTransform="matrix(37.62, 0, 0, -33.84, 202371.27, 35503.04)" xlink:href="#Degradado_sin_nombre_18"/><linearGradient id="Degradado_sin_nombre_17-6" x1="-5457.3" y1="1046.46" x2="-5456.3" y2="1046.46" gradientTransform="matrix(95.69, 0, 0, -49.69, 522453.97, 52164.31)" xlink:href="#Degradado_sin_nombre_17"/><linearGradient id="Degradado_sin_nombre_18-6" x1="-5372.16" y1="1047.37" x2="-5372.81" y2="1046.6" gradientTransform="matrix(37.62, 0, 0, -33.84, 202371.27, 35598.04)" xlink:href="#Degradado_sin_nombre_18"/><linearGradient id="Degradado_sin_nombre_17-7" x1="-5457.3" y1="1046.46" x2="-5456.3" y2="1046.46" gradientTransform="matrix(95.69, 0, 0, -49.69, 522561.97, 52069.31)" xlink:href="#Degradado_sin_nombre_17"/><linearGradient id="Degradado_sin_nombre_18-7" x1="-5372.16" y1="1047.37" x2="-5372.81" y2="1046.6" gradientTransform="matrix(37.62, 0, 0, -33.84, 202479.27, 35503.04)" xlink:href="#Degradado_sin_nombre_18"/><linearGradient id="Degradado_sin_nombre_17-8" x1="-5457.3" y1="1046.46" x2="-5456.3" y2="1046.46" gradientTransform="matrix(95.69, 0, 0, -49.69, 522561.97, 52164.31)" xlink:href="#Degradado_sin_nombre_17"/><linearGradient id="Degradado_sin_nombre_18-8" x1="-5372.16" y1="1047.37" x2="-5372.81" y2="1046.6" gradientTransform="matrix(37.62, 0, 0, -33.84, 202479.27, 35598.04)" xlink:href="#Degradado_sin_nombre_18"/></defs><title>Recurso 28</title><g id="Capa_2" data-name="Capa 2"><g id="Capa_1-2" data-name="Capa 1"><g id="Grupo_3774" data-name="Grupo 3774"><path id="Trazado_7578" data-name="Trazado 7578" class="cls-1" d="M58.25,45.67,6.68,73.21,50.55,95.36,102.37,68.8Z"/><path id="Trazado_7579" data-name="Trazado 7579" class="cls-2" d="M87.8,27.72,47.42,49.21l-.19,41.41L87.8,70.15Z"/><line id="Línea_422" data-name="Línea 422" class="cls-3" x1="87.82" y1="27.88" x2="69.33" y2="0.03"/><path id="Trazado_7581" data-name="Trazado 7581" class="cls-4" d="M9.89,28.86V71.61l37.34,19,.19-41.41L28.66,20.87Z"/><path id="Trazado_7582" data-name="Trazado 7582" class="cls-5" d="M65.33,54.82l-9.58,5.25-.06,12.77,9.64-4.94Z"/><path id="Trazado_7583" data-name="Trazado 7583" class="cls-5" d="M82.51,46.22l-9.57,5.26-.06,12.77,9.63-4.94Z"/><path id="Trazado_7584" data-name="Trazado 7584" class="cls-6" d="M47.46,56.79,47.1,90.64,9.84,71.48Z"/><path id="Trazado_7585" data-name="Trazado 7585" class="cls-4" d="M69.33,0,26.18,21.86,49.52,57.57,92.39,35"/><path id="Trazado_7586" data-name="Trazado 7586" class="cls-5" d="M49.48,57.6l-.17,2.46,42.9-22.81L92.37,35Z"/><path id="Trazado_7587" data-name="Trazado 7587" class="cls-2" d="M9.82,31l-9.41,3,25.8-11.84L27.41,24Z"/><path id="Trazado_7588" data-name="Trazado 7588" class="cls-2" d="M49.31,60l.12-2.44L26.21,22.08,0,32.54l.36,1.51L25.71,23.92Z"/><path id="Trazado_7589" data-name="Trazado 7589" class="cls-4" d="M0,32.54,26.21,22.08,69.15,0,51.29,6.11Z"/><path id="Trazado_7590" data-name="Trazado 7590" class="cls-2" d="M32,56.15,20.85,50.64v26.5L32.11,83Z"/><path id="Trazado_7591" data-name="Trazado 7591" class="cls-7" d="M22.15,51.22l-1.36-.76.06,26.68L22.21,76Z"/></g><g id="Grupo_3781" data-name="Grupo 3781"><path id="Trazado_7578-2" data-name="Trazado 7578-2" class="cls-8" d="M58.25,140.67,6.68,168.21l43.87,22.15,51.82-26.56Z"/><path id="Trazado_7579-2" data-name="Trazado 7579-2" class="cls-2" d="M87.8,122.72,47.42,144.21l-.19,41.41L87.8,165.15Z"/><line id="Línea_422-2" data-name="Línea 422-2" class="cls-3" x1="87.82" y1="122.88" x2="69.33" y2="95.03"/><path id="Trazado_7581-2" data-name="Trazado 7581-2" class="cls-4" d="M9.89,123.86v42.75l37.34,19,.19-41.41L28.66,115.87Z"/><path id="Trazado_7582-2" data-name="Trazado 7582-2" class="cls-5" d="M65.33,149.82l-9.58,5.25-.06,12.77,9.64-4.94Z"/><path id="Trazado_7583-2" data-name="Trazado 7583-2" class="cls-5" d="M82.51,141.22l-9.57,5.26-.06,12.77,9.63-4.94Z"/><path id="Trazado_7584-2" data-name="Trazado 7584-2" class="cls-9" d="M47.46,151.79l-.36,33.85L9.84,166.48Z"/><path id="Trazado_7585-2" data-name="Trazado 7585-2" class="cls-4" d="M69.33,95,26.18,116.86l23.34,35.71L92.39,130"/><path id="Trazado_7586-2" data-name="Trazado 7586-2" class="cls-5" d="M49.48,152.6l-.17,2.46,42.9-22.81.16-2.25Z"/><path id="Trazado_7587-2" data-name="Trazado 7587-2" class="cls-2" d="M9.82,126,.41,129.05l25.8-11.84,1.2,1.83Z"/><path id="Trazado_7588-2" data-name="Trazado 7588-2" class="cls-2" d="M49.31,155l.12-2.44L26.21,117.08,0,127.54l.36,1.51,25.35-10.13Z"/><path id="Trazado_7589-2" data-name="Trazado 7589-2" class="cls-4" d="M0,127.54l26.21-10.46L69.15,95l-17.86,6.11Z"/><path id="Trazado_7590-2" data-name="Trazado 7590-2" class="cls-2" d="M32,151.15l-11.15-5.51v26.5L32.11,178Z"/><path id="Trazado_7591-2" data-name="Trazado 7591-2" class="cls-7" d="M22.15,146.22l-1.36-.76.06,26.68L22.21,171Z"/></g><g id="Grupo_3775" data-name="Grupo 3775"><path id="Trazado_7578-3" data-name="Trazado 7578-3" class="cls-10" d="M166.25,45.67,114.68,73.21l43.87,22.15L210.37,68.8Z"/><path id="Trazado_7579-3" data-name="Trazado 7579-3" class="cls-2" d="M195.8,27.72,155.42,49.21l-.19,41.41L195.8,70.15Z"/><line id="Línea_422-3" data-name="Línea 422-3" class="cls-3" x1="195.82" y1="27.88" x2="177.33" y2="0.03"/><path id="Trazado_7581-3" data-name="Trazado 7581-3" class="cls-4" d="M117.89,28.86V71.61l37.34,19,.19-41.41L136.66,20.87Z"/><path id="Trazado_7582-3" data-name="Trazado 7582-3" class="cls-5" d="M173.33,54.82l-9.58,5.25-.06,12.77,9.64-4.94Z"/><path id="Trazado_7583-3" data-name="Trazado 7583-3" class="cls-5" d="M190.51,46.22l-9.57,5.26-.06,12.77,9.63-4.94Z"/><path id="Trazado_7584-3" data-name="Trazado 7584-3" class="cls-11" d="M155.46,56.79l-.36,33.85L117.84,71.48Z"/><path id="Trazado_7585-3" data-name="Trazado 7585-3" class="cls-4" d="M177.33,0,134.18,21.86l23.34,35.71L200.39,35"/><path id="Trazado_7586-3" data-name="Trazado 7586-3" class="cls-5" d="M157.48,57.6l-.17,2.46,42.9-22.81.16-2.25Z"/><path id="Trazado_7587-3" data-name="Trazado 7587-3" class="cls-2" d="M117.82,31l-9.41,3,25.8-11.84,1.2,1.83Z"/><path id="Trazado_7588-3" data-name="Trazado 7588-3" class="cls-2" d="M157.31,60l.12-2.44L134.21,22.08,108,32.54l.36,1.51,25.35-10.13Z"/><path id="Trazado_7589-3" data-name="Trazado 7589-3" class="cls-4" d="M108,32.54l26.21-10.46L177.15,0,159.29,6.11Z"/><path id="Trazado_7590-3" data-name="Trazado 7590-3" class="cls-2" d="M140,56.15l-11.15-5.51v26.5L140.11,83Z"/><path id="Trazado_7591-3" data-name="Trazado 7591-3" class="cls-7" d="M130.15,51.22l-1.36-.76.06,26.68L130.21,76Z"/></g><g id="Grupo_3779" data-name="Grupo 3779"><path id="Trazado_7578-4" data-name="Trazado 7578-4" class="cls-12" d="M166.25,140.67l-51.57,27.54,43.87,22.15,51.82-26.56Z"/><path id="Trazado_7579-5" data-name="Trazado 7579-5" class="cls-2" d="M195.8,122.72l-40.38,21.49-.19,41.41,40.57-20.47Z"/><line id="Línea_422-5" data-name="Línea 422-5" class="cls-3" x1="195.82" y1="122.88" x2="177.33" y2="95.03"/><path id="Trazado_7581-5" data-name="Trazado 7581-5" class="cls-4" d="M117.89,123.86v42.75l37.34,19,.19-41.41-18.76-28.34Z"/><path id="Trazado_7582-5" data-name="Trazado 7582-5" class="cls-5" d="M173.33,149.82l-9.58,5.25-.06,12.77,9.64-4.94Z"/><path id="Trazado_7583-5" data-name="Trazado 7583-5" class="cls-5" d="M190.51,141.22l-9.57,5.26-.06,12.77,9.63-4.94Z"/><path id="Trazado_7584-5" data-name="Trazado 7584-5" class="cls-13" d="M155.46,151.79l-.36,33.85-37.26-19.16Z"/><path id="Trazado_7585-5" data-name="Trazado 7585-5" class="cls-4" d="M177.33,95l-43.15,21.82,23.34,35.71L200.39,130"/><path id="Trazado_7586-5" data-name="Trazado 7586-5" class="cls-5" d="M157.48,152.6l-.17,2.46,42.9-22.81.16-2.25Z"/><path id="Trazado_7587-5" data-name="Trazado 7587-5" class="cls-2" d="M117.82,126l-9.41,3.05,25.8-11.84,1.2,1.83Z"/><path id="Trazado_7588-5" data-name="Trazado 7588-5" class="cls-2" d="M157.31,155l.12-2.44-23.22-35.46L108,127.54l.36,1.51,25.35-10.13Z"/><path id="Trazado_7589-5" data-name="Trazado 7589-5" class="cls-4" d="M108,127.54l26.21-10.46L177.15,95l-17.86,6.11Z"/><path id="Trazado_7590-5" data-name="Trazado 7590-5" class="cls-2" d="M140,151.15l-11.15-5.51v26.5L140.11,178Z"/><path id="Trazado_7591-5" data-name="Trazado 7591-5" class="cls-7" d="M130.15,146.22l-1.36-.76.06,26.68,1.36-1.11Z"/></g><g id="Grupo_3776" data-name="Grupo 3776"><path id="Trazado_7578-5" data-name="Trazado 7578-5" class="cls-14" d="M274.25,45.67,222.68,73.21l43.87,22.15L318.37,68.8Z"/><path id="Trazado_7579-6" data-name="Trazado 7579-6" class="cls-2" d="M303.8,27.72,263.42,49.21l-.19,41.41L303.8,70.15Z"/><line id="Línea_422-6" data-name="Línea 422-6" class="cls-3" x1="303.82" y1="27.88" x2="285.33" y2="0.03"/><path id="Trazado_7581-6" data-name="Trazado 7581-6" class="cls-4" d="M225.89,28.86V71.61l37.34,19,.19-41.41L244.66,20.87Z"/><path id="Trazado_7582-6" data-name="Trazado 7582-6" class="cls-5" d="M281.33,54.82l-9.58,5.25-.06,12.77,9.64-4.94Z"/><path id="Trazado_7583-6" data-name="Trazado 7583-6" class="cls-5" d="M298.51,46.22l-9.57,5.26-.06,12.77,9.63-4.94Z"/><path id="Trazado_7584-6" data-name="Trazado 7584-6" class="cls-15" d="M263.46,56.79l-.36,33.85L225.84,71.48Z"/><path id="Trazado_7585-6" data-name="Trazado 7585-6" class="cls-4" d="M285.33,0,242.18,21.86l23.34,35.71L308.39,35"/><path id="Trazado_7586-6" data-name="Trazado 7586-6" class="cls-5" d="M265.48,57.6l-.17,2.46,42.9-22.81.16-2.25Z"/><path id="Trazado_7587-6" data-name="Trazado 7587-6" class="cls-2" d="M225.82,31l-9.41,3,25.8-11.84,1.2,1.83Z"/><path id="Trazado_7588-6" data-name="Trazado 7588-6" class="cls-2" d="M265.31,60l.12-2.44L242.21,22.08,216,32.54l.36,1.51,25.35-10.13Z"/><path id="Trazado_7589-6" data-name="Trazado 7589-6" class="cls-4" d="M216,32.54l26.21-10.46L285.15,0,267.29,6.11Z"/><path id="Trazado_7590-6" data-name="Trazado 7590-6" class="cls-2" d="M248,56.15l-11.15-5.51v26.5L248.11,83Z"/><path id="Trazado_7591-6" data-name="Trazado 7591-6" class="cls-7" d="M238.15,51.22l-1.36-.76.06,26.68L238.21,76Z"/></g><g id="Grupo_3780" data-name="Grupo 3780"><path id="Trazado_7578-6" data-name="Trazado 7578-6" class="cls-16" d="M274.25,140.67l-51.57,27.54,43.87,22.15,51.82-26.56Z"/><path id="Trazado_7579-8" data-name="Trazado 7579-8" class="cls-2" d="M303.8,122.72l-40.38,21.49-.19,41.41,40.57-20.47Z"/><line id="Línea_422-8" data-name="Línea 422-8" class="cls-3" x1="303.82" y1="122.88" x2="285.33" y2="95.03"/><path id="Trazado_7581-8" data-name="Trazado 7581-8" class="cls-4" d="M225.89,123.86v42.75l37.34,19,.19-41.41-18.76-28.34Z"/><path id="Trazado_7582-8" data-name="Trazado 7582-8" class="cls-5" d="M281.33,149.82l-9.58,5.25-.06,12.77,9.64-4.94Z"/><path id="Trazado_7583-8" data-name="Trazado 7583-8" class="cls-5" d="M298.51,141.22l-9.57,5.26-.06,12.77,9.63-4.94Z"/><path id="Trazado_7584-8" data-name="Trazado 7584-8" class="cls-17" d="M263.46,151.79l-.36,33.85-37.26-19.16Z"/><path id="Trazado_7585-8" data-name="Trazado 7585-8" class="cls-4" d="M285.33,95l-43.15,21.82,23.34,35.71L308.39,130"/><path id="Trazado_7586-8" data-name="Trazado 7586-8" class="cls-5" d="M265.48,152.6l-.17,2.46,42.9-22.81.16-2.25Z"/><path id="Trazado_7587-8" data-name="Trazado 7587-8" class="cls-2" d="M225.82,126l-9.41,3.05,25.8-11.84,1.2,1.83Z"/><path id="Trazado_7588-8" data-name="Trazado 7588-8" class="cls-2" d="M265.31,155l.12-2.44-23.22-35.46L216,127.54l.36,1.51,25.35-10.13Z"/><path id="Trazado_7589-8" data-name="Trazado 7589-8" class="cls-4" d="M216,127.54l26.21-10.46L285.15,95l-17.86,6.11Z"/><path id="Trazado_7590-8" data-name="Trazado 7590-8" class="cls-2" d="M248,151.15l-11.15-5.51v26.5L248.11,178Z"/><path id="Trazado_7591-8" data-name="Trazado 7591-8" class="cls-7" d="M238.15,146.22l-1.36-.76.06,26.68,1.36-1.11Z"/></g><g id="Grupo_3777" data-name="Grupo 3777"><path id="Trazado_7578-7" data-name="Trazado 7578-7" class="cls-18" d="M382.25,45.67,330.68,73.21l43.87,22.15L426.37,68.8Z"/><path id="Trazado_7579-9" data-name="Trazado 7579-9" class="cls-2" d="M411.8,27.72,371.42,49.21l-.19,41.41L411.8,70.15Z"/><line id="Línea_422-9" data-name="Línea 422-9" class="cls-3" x1="411.82" y1="27.88" x2="393.33" y2="0.03"/><path id="Trazado_7581-9" data-name="Trazado 7581-9" class="cls-4" d="M333.89,28.86V71.61l37.34,19,.19-41.41L352.66,20.87Z"/><path id="Trazado_7582-9" data-name="Trazado 7582-9" class="cls-5" d="M389.33,54.82l-9.58,5.25-.06,12.77,9.64-4.94Z"/><path id="Trazado_7583-9" data-name="Trazado 7583-9" class="cls-5" d="M406.51,46.22l-9.57,5.26-.06,12.77,9.63-4.94Z"/><path id="Trazado_7584-9" data-name="Trazado 7584-9" class="cls-19" d="M371.46,56.79l-.36,33.85L333.84,71.48Z"/><path id="Trazado_7585-9" data-name="Trazado 7585-9" class="cls-4" d="M393.33,0,350.18,21.86l23.34,35.71L416.39,35"/><path id="Trazado_7586-9" data-name="Trazado 7586-9" class="cls-5" d="M373.48,57.6l-.17,2.46,42.9-22.81.16-2.25Z"/><path id="Trazado_7587-9" data-name="Trazado 7587-9" class="cls-2" d="M333.82,31l-9.41,3,25.8-11.84,1.2,1.83Z"/><path id="Trazado_7588-9" data-name="Trazado 7588-9" class="cls-2" d="M373.31,60l.12-2.44L350.21,22.08,324,32.54l.36,1.51,25.35-10.13Z"/><path id="Trazado_7589-9" data-name="Trazado 7589-9" class="cls-4" d="M324,32.54l26.21-10.46L393.15,0,375.29,6.11Z"/><path id="Trazado_7590-9" data-name="Trazado 7590-9" class="cls-2" d="M356,56.15l-11.15-5.51v26.5L356.11,83Z"/><path id="Trazado_7591-9" data-name="Trazado 7591-9" class="cls-7" d="M346.15,51.22l-1.36-.76.06,26.68L346.21,76Z"/></g><g id="Grupo_3778" data-name="Grupo 3778"><path id="Trazado_7578-8" data-name="Trazado 7578-8" class="cls-20" d="M382.25,140.67l-51.57,27.54,43.87,22.15,51.82-26.56Z"/><path id="Trazado_7579-10" data-name="Trazado 7579-10" class="cls-2" d="M411.8,122.72l-40.38,21.49-.19,41.41,40.57-20.47Z"/><line id="Línea_422-10" data-name="Línea 422-10" class="cls-3" x1="411.82" y1="122.88" x2="393.33" y2="95.03"/><path id="Trazado_7581-10" data-name="Trazado 7581-10" class="cls-4" d="M333.89,123.86v42.75l37.34,19,.19-41.41-18.76-28.34Z"/><path id="Trazado_7582-10" data-name="Trazado 7582-10" class="cls-5" d="M389.33,149.82l-9.58,5.25-.06,12.77,9.64-4.94Z"/><path id="Trazado_7583-10" data-name="Trazado 7583-10" class="cls-5" d="M406.51,141.22l-9.57,5.26-.06,12.77,9.63-4.94Z"/><path id="Trazado_7584-10" data-name="Trazado 7584-10" class="cls-21" d="M371.46,151.79l-.36,33.85-37.26-19.16Z"/><path id="Trazado_7585-10" data-name="Trazado 7585-10" class="cls-4" d="M393.33,95l-43.15,21.82,23.34,35.71L416.39,130"/><path id="Trazado_7586-10" data-name="Trazado 7586-10" class="cls-5" d="M373.48,152.6l-.17,2.46,42.9-22.81.16-2.25Z"/><path id="Trazado_7587-10" data-name="Trazado 7587-10" class="cls-2" d="M333.82,126l-9.41,3.05,25.8-11.84,1.2,1.83Z"/><path id="Trazado_7588-10" data-name="Trazado 7588-10" class="cls-2" d="M373.31,155l.12-2.44-23.22-35.46L324,127.54l.36,1.51,25.35-10.13Z"/><path id="Trazado_7589-10" data-name="Trazado 7589-10" class="cls-4" d="M324,127.54l26.21-10.46L393.15,95l-17.86,6.11Z"/><path id="Trazado_7590-10" data-name="Trazado 7590-10" class="cls-2" d="M356,151.15l-11.15-5.51v26.5L356.11,178Z"/><path id="Trazado_7591-10" data-name="Trazado 7591-10" class="cls-7" d="M346.15,146.22l-1.36-.76.06,26.68,1.36-1.11Z"/></g></g></g></svg>