<svg xmlns="http://www.w3.org/2000/svg" xmlns:xlink="http://www.w3.org/1999/xlink" viewBox="0 0 406.61 422.81"><defs><style>.cls-1{fill:#dfe6ef;}.cls-2{fill:#acb8cc;}.cls-3{opacity:0.31;fill:url(#Degradado_sin_nombre_7);}</style><linearGradient id="Degradado_sin_nombre_7" x1="160.89" y1="246.06" x2="392.9" y2="246.06" gradientUnits="userSpaceOnUse"><stop offset="0" stop-color="#9aa5c3"/><stop offset="1" stop-color="#f2f5fa"/></linearGradient></defs><title>Recurso 30</title><g id="Capa_2" data-name="Capa 2"><g id="Capa_1-2" data-name="Capa 1"><path class="cls-1" d="M14,69.35c-.19-.12-.36.1-.23.28L160.88,271a.19.19,0,0,0,.16.08h84.51a.19.19,0,0,0,.16-.08L392.85,69.63c.13-.18,0-.41-.23-.29"/><path class="cls-1" d="M245.66,338.84l-83.82,83.82a.52.52,0,0,1-.89-.37V271.07h84.71Z"/><ellipse class="cls-2" cx="203.3" cy="50.83" rx="203.3" ry="50.83"/><path class="cls-3" d="M392.85,69.63,245.7,271a.19.19,0,0,1-.16.1h.13v67.77l-83.83,83.8a.52.52,0,0,1-.89-.35V271.08H161a.18.18,0,0,1-.15-.1s91.91-170.57,90.52-170.57c67,1.39,141.22-31.07,141.22-31.07C392.82,69.22,393,69.44,392.85,69.63Z"/></g></g></svg>