<svg xmlns="http://www.w3.org/2000/svg" xmlns:xlink="http://www.w3.org/1999/xlink" viewBox="0 0 406.61 480.88"><defs><style>.cls-1{fill:#dfe6ef;}.cls-2{fill:#acb8cc;}.cls-3{opacity:0.31;fill:url(#Degradado_sin_nombre_7);}.cls-4{fill:#c3cbdb;}.cls-5{fill:none;}.cls-6,.cls-8{opacity:0.31;isolation:isolate;}.cls-6{fill:url(#Degradado_sin_nombre_18);}.cls-7{fill:#8e9ab2;}.cls-8{fill:url(#Degradado_sin_nombre_18-2);}</style><linearGradient id="Degradado_sin_nombre_7" x1="160.89" y1="304.12" x2="392.9" y2="304.12" gradientUnits="userSpaceOnUse"><stop offset="0" stop-color="#9aa5c3"/><stop offset="1" stop-color="#f2f5fa"/></linearGradient><linearGradient id="Degradado_sin_nombre_18" x1="-5396.75" y1="733.71" x2="-5397.4" y2="732.94" gradientTransform="matrix(37.62, 0, 0, -33.84, 203175.15, 24888.5)" xlink:href="#Degradado_sin_nombre_7"/><linearGradient id="Degradado_sin_nombre_18-2" x1="-5396.75" y1="733.71" x2="-5397.4" y2="732.94" gradientTransform="matrix(37.62, 0, 0, -33.84, 203283.15, 24888.5)" xlink:href="#Degradado_sin_nombre_7"/></defs><title>Recurso 27</title><g id="Capa_2" data-name="Capa 2"><g id="Capa_1-2" data-name="Capa 1"><path class="cls-1" d="M14,127.41a.18.18,0,0,0-.23.28L160.88,329.05a.19.19,0,0,0,.16.08h84.51a.19.19,0,0,0,.16-.08L392.85,127.69c.13-.17,0-.4-.23-.28"/><path class="cls-1" d="M245.66,396.9l-83.82,83.82a.52.52,0,0,1-.89-.36V329.13h84.71Z"/><ellipse class="cls-2" cx="203.3" cy="108.89" rx="203.3" ry="50.83"/><path class="cls-3" d="M392.85,127.69,245.7,329a.17.17,0,0,1-.16.1h.13v67.77l-83.83,83.8a.52.52,0,0,1-.89-.35V329.14H161a.16.16,0,0,1-.15-.1s91.91-170.57,90.52-170.57c67,1.39,141.22-31.06,141.22-31.06C392.82,127.28,393,127.5,392.85,127.69Z"/><g id="Grupo_3785" data-name="Grupo 3785"><path id="Trazado_7579-4" data-name="Trazado 7579-4" class="cls-4" d="M182.69,27.72,142.31,49.21l-.19,41.41,40.57-20.47Z"/><line id="Línea_422-4" data-name="Línea 422-4" class="cls-5" x1="182.71" y1="27.88" x2="164.21" y2="0.03"/><path id="Trazado_7581-4" data-name="Trazado 7581-4" class="cls-1" d="M104.78,28.86V71.61l37.34,19,.19-41.41L123.54,20.87Z"/><path id="Trazado_7582-4" data-name="Trazado 7582-4" class="cls-2" d="M160.22,54.82l-9.58,5.25-.06,12.77,9.64-4.94Z"/><path id="Trazado_7583-4" data-name="Trazado 7583-4" class="cls-2" d="M177.4,46.22l-9.58,5.26-.06,12.77,9.64-4.94Z"/><path id="Trazado_7584-4" data-name="Trazado 7584-4" class="cls-6" d="M142.34,56.79,142,90.64,104.72,71.48Z"/><path id="Trazado_7585-4" data-name="Trazado 7585-4" class="cls-1" d="M164.21,0,121.07,21.86,144.4,57.57,187.28,35"/><path id="Trazado_7586-4" data-name="Trazado 7586-4" class="cls-2" d="M144.37,57.6l-.17,2.46,42.9-22.81.15-2.25Z"/><path id="Trazado_7587-4" data-name="Trazado 7587-4" class="cls-4" d="M104.7,31l-9.41,3,25.8-11.84,1.2,1.83Z"/><path id="Trazado_7588-4" data-name="Trazado 7588-4" class="cls-4" d="M144.2,60l.12-2.44L121.1,22.08,94.89,32.54l.35,1.51L120.6,23.92Z"/><path id="Trazado_7589-4" data-name="Trazado 7589-4" class="cls-1" d="M94.89,32.54,121.1,22.08,164,0,146.18,6.11Z"/><path id="Trazado_7590-4" data-name="Trazado 7590-4" class="cls-4" d="M126.88,56.15l-11.14-5.51v26.5L127,83Z"/><path id="Trazado_7591-4" data-name="Trazado 7591-4" class="cls-7" d="M117,51.22l-1.36-.76.07,26.68L117.1,76Z"/></g><g id="Grupo_3786" data-name="Grupo 3786"><path id="Trazado_7579-7" data-name="Trazado 7579-7" class="cls-4" d="M290.69,27.72,250.31,49.21l-.19,41.41,40.57-20.47Z"/><line id="Línea_422-7" data-name="Línea 422-7" class="cls-5" x1="290.71" y1="27.88" x2="272.21" y2="0.03"/><path id="Trazado_7581-7" data-name="Trazado 7581-7" class="cls-1" d="M212.78,28.86V71.61l37.34,19,.19-41.41L231.54,20.87Z"/><path id="Trazado_7582-7" data-name="Trazado 7582-7" class="cls-2" d="M268.22,54.82l-9.58,5.25-.06,12.77,9.64-4.94Z"/><path id="Trazado_7583-7" data-name="Trazado 7583-7" class="cls-2" d="M285.4,46.22l-9.58,5.26-.06,12.77,9.64-4.94Z"/><path id="Trazado_7584-7" data-name="Trazado 7584-7" class="cls-8" d="M250.34,56.79,250,90.64,212.72,71.48Z"/><path id="Trazado_7585-7" data-name="Trazado 7585-7" class="cls-1" d="M272.21,0,229.07,21.86,252.4,57.57,295.28,35"/><path id="Trazado_7586-7" data-name="Trazado 7586-7" class="cls-2" d="M252.37,57.6l-.17,2.46,42.9-22.81.15-2.25Z"/><path id="Trazado_7587-7" data-name="Trazado 7587-7" class="cls-4" d="M212.7,31l-9.41,3,25.8-11.84,1.2,1.83Z"/><path id="Trazado_7588-7" data-name="Trazado 7588-7" class="cls-4" d="M252.2,60l.12-2.44L229.1,22.08,202.89,32.54l.35,1.51L228.6,23.92Z"/><path id="Trazado_7589-7" data-name="Trazado 7589-7" class="cls-1" d="M202.89,32.54,229.1,22.08,272,0,254.18,6.11Z"/><path id="Trazado_7590-7" data-name="Trazado 7590-7" class="cls-4" d="M234.88,56.15l-11.14-5.51v26.5L235,83Z"/><path id="Trazado_7591-7" data-name="Trazado 7591-7" class="cls-7" d="M225,51.22l-1.36-.76.07,26.68L225.1,76Z"/></g></g></g></svg>