<svg xmlns="http://www.w3.org/2000/svg" viewBox="0 0 314.8 516.4"><defs><style>.cls-1{fill:#ffab00;}.cls-2{fill:#ffd600;}</style></defs><title>valuador</title><g id="Capa_2" data-name="Capa 2"><g id="Capa_1-2" data-name="Capa 1"><path class="cls-1" d="M153.4,0C69.7,0,1.8,68,1.8,151.6s68,151.6,151.6,151.6S305,235.2,305,151.6,237,0,153.4,0Z"/><path class="cls-2" d="M153.4,32.5A119.26,119.26,0,0,0,34.3,151.6c0,65.6,53.5,119.1,119.1,119.1s119.1-53.5,119.1-119.1A119.26,119.26,0,0,0,153.4,32.5Z"/><path class="cls-1" d="M212.2,184.4c0-21.5-12.7-34.8-38.2-40.3l-8.9-1.8V105.2A21.65,21.65,0,0,1,180,116a13.31,13.31,0,0,0,12,7.4c10.4,0,17.2-11.5,11.6-20.3C196.4,91.6,182.7,83.9,165,82V75.6a9.1,9.1,0,0,0-18.2,0V82c-28.3,3.1-44.8,18.5-44.8,42.1,0,20.7,12.9,34.5,36.8,40.1l8,1.9v39.1c-8.1-1.5-14.2-5.7-17.2-11.5a13.49,13.49,0,0,0-12-7.4h-1.4c-10.4,0-17.1,11.4-11.6,20.3,7.4,12,22.2,19.6,42.2,21.4v4.3a9.1,9.1,0,1,0,18.2,0V228C195.3,224.7,212.2,209.1,212.2,184.4Zm-81.4-62.6c0-8.7,6.5-15.3,16-16.7v33.4C136.4,135.6,130.8,129.9,130.8,121.8Zm34.3,83.7V169.6c13,3,19,8.7,19,17.9C184,197.6,177,204.3,165.1,205.5Z"/><path class="cls-1" d="M212.2,184.4c0-21.5-12.7-34.8-38.2-40.3l-8.9-1.8V105.2A21.65,21.65,0,0,1,180,116a13.31,13.31,0,0,0,12,7.4c10.4,0,17.2-11.5,11.6-20.3C196.4,91.6,182.7,83.9,165,82V75.6a9.1,9.1,0,0,0-18.2,0V82c-28.3,3.1-44.8,18.5-44.8,42.1,0,20.7,12.9,34.5,36.8,40.1l8,1.9v39.1c-8.1-1.5-14.2-5.7-17.2-11.5a13.49,13.49,0,0,0-12-7.4h-1.4c-10.4,0-17.1,11.4-11.6,20.3,7.4,12,22.2,19.6,42.2,21.4v4.3a9.1,9.1,0,1,0,18.2,0V228C195.3,224.7,212.2,209.1,212.2,184.4Zm-81.4-62.6c0-8.7,6.5-15.3,16-16.7v33.4C136.4,135.6,130.8,129.9,130.8,121.8Zm34.3,83.7V169.6c13,3,19,8.7,19,17.9C184,197.6,177,204.3,165.1,205.5Z"/><path class="cls-2" d="M307,389.5H41.7a7.7,7.7,0,0,1-7.7-7.7V331.5a7.7,7.7,0,0,1,7.7-7.7H307.1a7.7,7.7,0,0,1,7.7,7.7v50.3A7.86,7.86,0,0,1,307,389.5Z"/><path class="cls-2" d="M307,516.4H41.7a7.7,7.7,0,0,1-7.7-7.7V458.4a7.7,7.7,0,0,1,7.7-7.7H307.1a7.7,7.7,0,0,1,7.7,7.7v50.3A7.86,7.86,0,0,1,307,516.4Z"/><path class="cls-1" d="M273,452.9H7.7A7.7,7.7,0,0,1,0,445.2V395a7.7,7.7,0,0,1,7.7-7.7H273.1a7.7,7.7,0,0,1,7.7,7.7v50.3A7.77,7.77,0,0,1,273,452.9Z"/></g></g></svg>